<?xml version="1.0" standalone="no"?>
<!DOCTYPE svg PUBLIC "-//W3C//DTD SVG 20010904//EN"
 "http://www.w3.org/TR/2001/REC-SVG-20010904/DTD/svg10.dtd">
<svg version="1.0" xmlns="http://www.w3.org/2000/svg"
 width="260.000000pt" height="260.000000pt" viewBox="0 0 260.000000 260.000000"
 preserveAspectRatio="xMidYMid meet">
<metadata>
Created by potrace 1.14, written by Peter Selinger 2001-2017
</metadata>
<g transform="translate(0.000000,260.000000) scale(0.100000,-0.100000)"
fill="#000000" stroke="none">
<path d="M0 1300 l0 -1300 1300 0 1300 0 0 1300 0 1300 -1300 0 -1300 0 0
-1300z m1575 990 c205 -53 381 -195 475 -385 184 -376 38 -825 -330 -1010
-229 -116 -513 -105 -735 28 -38 23 -73 44 -77 45 -5 2 -8 -154 -8 -346 l0
-351 -25 -19 c-55 -43 -158 19 -218 132 l-22 41 0 640 c0 518 3 650 14 690 71
255 249 445 486 521 149 47 291 52 440 14z"/>
<path d="M1305 2049 c-196 -33 -356 -184 -396 -377 -17 -83 -7 -215 21 -282
78 -184 229 -296 414 -308 184 -11 351 75 446 234 175 291 -6 682 -340 734
-72 11 -75 11 -145 -1z"/>
</g>
</svg>
